<svg id="svg2997" xmlns:rdf="http://www.w3.org/1999/02/22-rdf-syntax-ns#" xmlns="http://www.w3.org/2000/svg" xmlns:osb="http://www.openswatchbook.org/uri/2009/osb" viewBox="0 0 400 1200" version="1.1" enable-background="new" preserveAspectRatio="xMidYMin slice" xmlns:cc="http://creativecommons.org/ns#" xmlns:xlink="http://www.w3.org/1999/xlink" xmlns:dc="http://purl.org/dc/elements/1.1/">
	<style id="style3570" type="text/css">.layer { display: none; }
.layer:target { display: inline; }
.hl:hover { stroke: red; }</style>
	<defs id="defs2999">
		<marker id="marker13423" refY="0.0" refX="0.0" overflow="visible" orient="auto">
			<path id="path13425" stroke-linejoin="round" d="m8.7186 4.0337l-10.926-4.0177 10.926-4.0177c-1.7455 2.3721-1.7355 5.6174 0 8.0354z" fill-rule="evenodd" transform="scale(.6) translate(0)" stroke="#666" stroke-width=".625" fill="#666"/>
		</marker>
		<marker id="Arrow1Mstart" refY="0" refX="0" orient="auto" overflow="visible">
			<path id="path7114" d="m0 0 5-5-17.5 5 17.5 5-5-5z" fill-rule="evenodd" transform="matrix(.4 0 0 .4 4 0)" stroke="#333" stroke-width="1pt" fill="#333"/>
		</marker>
		<pattern id="pattern5805" xlink:href="#g-hatch-3" patternTransform="matrix(.70711 .70711 -.70711 .70711 14.651 1090.7)"/>
		<pattern id="g-hatch-3" width="4" patternUnits="userSpaceOnUse" patternTransform="rotate(45)" height="4">
			<line id="line3002-3" y2="4" x2="0" stroke="#333"/>
		</pattern>
		<pattern id="pattern3370" xlink:href="#g-hatch-3" patternTransform="matrix(.70711 .70711 -.70711 .70711 -2.3842e-7 -1600)"/>
		<pattern id="pattern3583" xlink:href="#g-hatch-9" patternTransform="matrix(.70711 .70711 -.70711 .70711 -6.114 853.73)"/>
		<pattern id="pattern13947" xlink:href="#g-hatch-9" patternTransform="matrix(.70711 .70711 -.70711 .70711 -6.114 853.73)"/>
		<pattern id="g-hatch-9" width="4" patternUnits="userSpaceOnUse" patternTransform="rotate(45)" height="4">
			<line id="line3002-1" y2="4" x2="0" stroke="#333"/>
		</pattern>
		<marker id="Arrow1Mstart-4" refY="0" refX="0" orient="auto" overflow="visible">
			<path id="path7114-4" d="m0 0 5-5-17.5 5 17.5 5-5-5z" fill-rule="evenodd" transform="matrix(.4 0 0 .4 4 0)" stroke="#333" stroke-width="1pt" fill="#333"/>
		</marker>
	</defs>
	<g id="g-sprites" transform="translate(0,-600)" class="layer">
		<text id="text" font-family="Georgia" font-size="80px" stroke="#333333" line-height="125%" y="1390.7233" x="14.650643" fill="url(#pattern5805)">
			<tspan id="tspan6451" font-weight="bold" font-size="45px" fill="url(#pattern5805)">Штриховка</tspan>
		</text>
		<rect id="rect6582" fill-opacity="0" transform="scale(1,-1)" height="80" width="300" y="-1419" x="500"/>
		<rect id="rect6584" fill-opacity="0" height="100" width="390" y="1319" x="560"/>
		<text id="text3374" style="word-spacing:0px;letter-spacing:0px" xml:space="preserve" font-size="80px" line-height="125%" y="631.85181" x="350.8504" font-family="Georgia" fill="#333333"><tspan id="tspan3376" font-size="17.5px" y="631.85181" x="350.8504" font-family="&apos;Times New Roman&apos;" fill="#333333">A<tspan id="tspan3378" style="baseline-shift:sub" font-size="12.5px" font-family="&apos;Times New Roman&apos;" fill="#333333">1</tspan></tspan></text>
		<text id="text3380" style="word-spacing:0px;letter-spacing:0px" font-size="80px" line-height="125%" y="631.85181" x="375.73975" font-family="Georgia" xml:space="preserve" fill="#333333"><tspan id="tspan3382" font-size="17.5px" y="631.85181" x="375.73975" font-family="&apos;Times New Roman&apos;" fill="#333333">A<tspan id="tspan3384" style="baseline-shift:sub" font-size="12.5px" font-family="&apos;Times New Roman&apos;" fill="#333333">2</tspan></tspan></text>
		<g stroke="#333">
			<circle id="g-element-1" stroke-width="1.8182" fill-opacity="0" class="hl" cy="620.18" cx="40" r="9.0909"/>
			<circle id="g-element-0" stroke-width="1.2807" transform="scale(1,-1)" stroke="#333" class="hl" cy="-613" cx="13" r="2.3596" fill="#333"/>
			<circle id="g-element-2" stroke-width="1.9048" fill-opacity="0" stroke="#333" class="hl" cy="630.18" cx="80" r="19.048"/>
			<circle id="g-element-3" fill-opacity="0" cx="140.1" class="hl" cy="640.28" r="28.699" stroke-width="2"/>
			<circle id="ellipse4256" stroke-width="1.9512" class="hl" pointer-events="none" cy="650.18" cx="220" r="39.024" fill="none"/>
			<path id="path4304" d="m156.81 1218.1h-5q-5 0-5 10v40q0 10-5 10h-2.5q-2.5 0 2.5 0h2.5q2.5 0 2.5 10v40q0 10 5 10h5" pointer-events="none" stroke-miterlimit="10" stroke-width="2" fill="none"/>
		</g>
		<g>
			<rect id="rect4365" transform="scale(-1)" height="94.717" width="320" y="-1614" x="-380" fill="url(#pattern3370)"/>
			<g>
				<text id="text3641" style="word-spacing:0px;letter-spacing:0px" font-size="80px" line-height="125%" y="654.04346" x="299.83765" font-family="Georgia" xml:space="preserve" fill="#333333"><tspan id="tspan3643" font-size="17.5px" y="654.04346" x="299.83765" font-family="&apos;Times New Roman&apos;" fill="#333333">Y<tspan id="tspan3645" style="baseline-shift:sub" font-size="12.5px" font-family="&apos;Times New Roman&apos;" fill="#333333">mn</tspan></tspan></text>
				<text id="text3647" style="word-spacing:0px;letter-spacing:0px" xml:space="preserve" font-size="80px" line-height="125%" y="654.1759" x="349.59656" font-family="Georgia" fill="#333333"><tspan id="tspan3649" font-size="17.5px" y="654.1759" x="349.59656" font-family="&apos;Times New Roman&apos;" fill="#333333">Y<tspan id="tspan3651" style="baseline-shift:sub" font-size="12.5px" font-family="&apos;Times New Roman&apos;" fill="#333333">1.2</tspan></tspan></text>
				<text id="text3653" style="word-spacing:0px;letter-spacing:0px" font-size="80px" line-height="125%" y="631.85181" x="300.30151" font-family="Georgia" xml:space="preserve" fill="#000000"><tspan id="tspan3655" font-size="17.5px" y="631.85181" x="300.30151" font-family="&apos;Times New Roman&apos;" fill="#333333">A</tspan></text>
			</g>
		</g>
		<path id="g-relation-0" d="m97.02 665h-87.168" marker-start="url(#Arrow1Mstart)" stroke="#333" stroke-width="2" class="hl" fill="none"/>
		<g>
			<text id="text3647-9" style="word-spacing:0px;letter-spacing:0px" font-family="Georgia" xml:space="preserve" font-size="80px" line-height="125%" y="678.95801" x="299.83765" fill="#333333"><tspan id="tspan3649-5" font-size="17.5px" y="678.95801" x="299.83765" font-family="&apos;Times New Roman&apos;" fill="#333333">A<tspan id="tspan3651-5" style="baseline-shift:sub" font-size="12.5px" font-family="&apos;Times New Roman&apos;" fill="#333333">1.1</tspan></tspan></text>
			<text id="text3442" style="word-spacing:0px;letter-spacing:0px" font-family="Georgia" font-size="80px" line-height="125%" y="678.95801" x="351.55884" xml:space="preserve" fill="#333333"><tspan id="tspan3444" font-size="17.5px" y="678.95801" x="351.55884" font-family="&apos;Times New Roman&apos;" fill="#333333">A<tspan id="tspan3446" style="baseline-shift:sub" font-size="12.5px" font-family="&apos;Times New Roman&apos;" fill="#333333">1.2</tspan></tspan></text>
			<text id="text3448" style="word-spacing:0px;letter-spacing:0px" font-size="80px" line-height="125%" y="703.95801" x="299.83765" font-family="Georgia" xml:space="preserve" fill="#333333"><tspan id="tspan3450" font-size="17.5px" y="703.95801" x="299.83765" font-family="&apos;Times New Roman&apos;" fill="#333333">Y<tspan id="tspan3452" style="baseline-shift:sub" font-size="12.5px" font-family="&apos;Times New Roman&apos;" fill="#333333">(1.1)(1.2)</tspan></tspan></text>
		</g>
		<path id="path3454" d="m97.904 690.29h-58.04" marker-start="url(#marker13423)" class="hl" stroke="#666" stroke-width="2" fill="none"/>
		<path id="path4565" d="m9.8523 723.51v-48.61" marker-start="url(#Arrow1Mstart)" class="hl" stroke="#333" stroke-width="2" fill="none"/>
		<g>
			<text id="text13676" style="word-spacing:0px;letter-spacing:0px" font-family="Georgia" font-size="80px" line-height="125%" y="727.87726" x="314.0687" xml:space="preserve" fill="#333333"><tspan id="tspan13678" font-size="12.5px" y="727.87726" x="314.0687" font-family="&apos;Times New Roman&apos;" fill="#333333">1.1</tspan></text>
			<text id="text13682" style="word-spacing:0px;letter-spacing:0px" font-family="Georgia" xml:space="preserve" font-size="80px" line-height="125%" y="727.87726" x="336.30472" fill="#333333"><tspan id="tspan13684" font-size="12.5px" y="727.87726" x="336.30472" font-family="&apos;Times New Roman&apos;" fill="#333333">1.2</tspan></text>
			<text id="text13686" style="word-spacing:0px;letter-spacing:0px" font-family="Georgia" font-size="80px" line-height="125%" y="727.87726" x="358.09601" xml:space="preserve" fill="#333333"><tspan id="tspan13688" font-size="12.5px" y="727.87726" x="358.09601" font-family="&apos;Times New Roman&apos;" fill="#333333">2</tspan></text>
			<text id="text13690" style="word-spacing:0px;letter-spacing:0px" font-family="Georgia" xml:space="preserve" font-size="80px" line-height="125%" y="727.87726" x="300.72711" fill="#333333"><tspan id="tspan13692" font-size="12.5px" y="727.87726" x="300.72711" font-family="&apos;Times New Roman&apos;" fill="#333333">1</tspan></text>
		</g>
		<g id="g13843" transform="translate(0 .000041716)">
			<rect id="rect13664-2" fill-opacity="0" height="78.302" width="78.302" stroke="#333" y="742.26" x="8.8235" stroke-width="1.6982"/>
			<path id="path13666-1" d="m87.974 781.41h-80" stroke="#333" stroke-width="2" fill="none"/>
			<path id="path13668-9" d="m47.974 820.3v-78.89" stroke="#333" stroke-width="2" fill="none"/>
		</g>
		<text id="text13887" style="word-spacing:0px;letter-spacing:0px" xml:space="preserve" font-size="80px" line-height="125%" y="750.56036" x="298.15619" font-family="Georgia" fill="#000000"><tspan id="tspan13889" font-size="17.5px" y="750.56036" x="298.15619" font-family="&apos;Times New Roman&apos;" fill="#333333">t</tspan></text>
		<text id="text13891" style="word-spacing:0px;letter-spacing:0px" xml:space="preserve" font-size="80px" line-height="125%" y="728.70221" x="374.68661" font-family="Georgia" fill="#000000"><tspan id="tspan13893" font-size="17.5px" y="728.70221" x="374.68661" font-family="&apos;Times New Roman&apos;" fill="#333333">0</tspan></text>
		<g>
			<text id="text13895" style="word-spacing:0px;letter-spacing:0px" font-size="80px" line-height="125%" y="750.91791" x="312.83621" font-family="Georgia" xml:space="preserve" fill="#333333"><tspan id="tspan13897" font-size="17.5px" y="750.91791" x="312.83621" font-family="&apos;Times New Roman&apos;" fill="#333333">t<tspan id="tspan13899" style="baseline-shift:sub" font-size="12.5px" font-family="&apos;Times New Roman&apos;" fill="#333333">1</tspan></tspan></text>
			<text id="text13901" style="word-spacing:0px;letter-spacing:0px" xml:space="preserve" font-size="80px" line-height="125%" y="750.91791" x="329.56039" font-family="Georgia" fill="#333333"><tspan id="tspan13903" font-size="17.5px" y="750.91791" x="329.56039" font-family="&apos;Times New Roman&apos;" fill="#333333">t<tspan id="tspan13905" style="baseline-shift:sub" font-size="12.5px" font-family="&apos;Times New Roman&apos;" fill="#333333">2</tspan></tspan></text>
			<text id="text13907" style="word-spacing:0px;letter-spacing:0px" xml:space="preserve" font-size="80px" line-height="125%" y="750.91791" x="346.28455" font-family="Georgia" fill="#333333"><tspan id="tspan13909" font-size="17.5px" y="750.91791" x="346.28455" font-family="&apos;Times New Roman&apos;" fill="#333333">t<tspan id="tspan13911" style="baseline-shift:sub" font-size="12.5px" font-family="&apos;Times New Roman&apos;" fill="#333333">3</tspan></tspan></text>
			<text id="text13913" style="word-spacing:0px;letter-spacing:0px" font-size="80px" line-height="125%" y="750.91791" x="363.00873" font-family="Georgia" xml:space="preserve" fill="#333333"><tspan id="tspan13915" font-size="17.5px" y="750.91791" x="363.00873" font-family="&apos;Times New Roman&apos;" fill="#333333">t<tspan id="tspan13917" style="baseline-shift:sub" font-size="12.5px" font-family="&apos;Times New Roman&apos;" fill="#333333">4</tspan></tspan></text>
			<text id="text13919" style="word-spacing:0px;letter-spacing:0px" font-size="80px" line-height="125%" y="631.85181" x="325.52795" font-family="Georgia" xml:space="preserve" fill="#333333"><tspan id="tspan13921" font-size="17.5px" y="631.85181" x="325.52795" font-family="&apos;Times New Roman&apos;" fill="#333333">A<tspan id="tspan13923" style="baseline-shift:sub" font-size="12.5px" font-family="&apos;Times New Roman&apos;" fill="#333333">0</tspan></tspan></text>
		</g>
	</g>
	<g id="g-graph" transform="translate(0,-600)" class="layer">
		<use id="use3522" xlink:href="#g-element-2" transform="translate(153.84 16.035)" height="100%" width="100%" y="0" x="0"/>
		<use id="use3524" xlink:href="#g-element-0" transform="translate(118.84 31.22)" height="100%" width="100%" y="0" x="0"/>
		<use id="use4511" xlink:href="#text3653" transform="translate(-71.941 206.41)" height="100%" width="100%" y="0" x="0"/>
		<use id="use4540" xlink:href="#text3641" transform="translate(-116.55 56.22)" height="100%" width="100%" y="0" x="0"/>
		<use id="use4626" xlink:href="#text3374" transform="translate(-205.76 -1.456)" height="100%" width="100%" y="0" x="0"/>
		<use id="use4643" xlink:href="#text3380" transform="translate(-116.16 -1.456)" height="100%" width="100%" y="0" x="0"/>
		<use id="use4769" xlink:href="#g-relation-0" transform="translate(142.66 56.22)" height="100%" width="100%" y="0" x="0"/>
		<g id="g4955" transform="translate(127.66 -163.78)">
			<use id="use4669" xlink:href="#g-element-0" transform="translate(8.8523 333.86)" height="100%" width="100%" y="0" x="0"/>
			<use id="use4669-4" xlink:href="#g-element-0" transform="translate(105.84 333.86)" height="100%" width="100%" y="0" x="0"/>
			<use id="use4769-1" xlink:href="#g-relation-0" transform="translate(15 281.86)" height="100%" width="100%" y="0" x="0"/>
			<use id="use4904" xlink:href="#text3374" transform="translate(-337.75 303.88)" height="100%" width="100%" y="0" x="0"/>
			<use id="use4921" xlink:href="#text3380" transform="translate(-262.68 303.88)" height="100%" width="100%" y="0" x="0"/>
			<use id="use4938" xlink:href="#text3647" transform="translate(-296.54 313.24)" height="100%" width="100%" y="0" x="0"/>
		</g>
		<use id="use4963" xlink:href="#g4955" transform="translate(-.0000039688 104.48)" height="100%" width="100%" y="0" x="0"/>
		<ellipse id="ellipse4270" rx="73.948" ry="40.093" stroke="#333" class="hl" pointer-events="none" cy="885.35" cx="196.96" stroke-width="2" fill="none"/>
	</g>
	<g id="g-graph2" class="layer">
		<use id="use4396" xlink:href="#g-relation-0" transform="translate(73.873 -609.5)" height="100%" width="100%" y="0" x="0"/>
		<use id="use4479" xlink:href="#g-element-0" transform="translate(67.725 -557.5)" height="100%" width="100%" y="0" x="0"/>
		<use id="use4479-8" xlink:href="#g-element-0" transform="translate(164.71 -557.5)" height="100%" width="100%" y="0" x="0"/>
		<use id="use4502" xlink:href="#text3647-9" transform="translate(-228.79 -636.14)" height="100%" width="100%" y="0" x="0"/>
		<use id="use4519" xlink:href="#text3442" transform="translate(-194.34 -636.14)" height="100%" width="100%" y="0" x="0"/>
		<use id="use4536" xlink:href="#text3374" transform="translate(-180.09 -527.32)" height="100%" width="100%" y="0" x="0"/>
		<use id="use4559" xlink:href="#text3374" transform="translate(-31.952 -595.53)" height="100%" width="100%" y="0" x="0"/>
		<use id="use4561" xlink:href="#text3380" transform="translate(-57.345 -536)" height="100%" width="100%" y="0" x="0"/>
		<use id="use4563" xlink:href="#text3380" transform="translate(-235.35 -476.27)" height="100%" width="100%" y="0" x="0"/>
		<use id="use4567" xlink:href="#path4565" transform="translate(300.23 -638.18)" height="100%" width="100%" y="0" x="0"/>
		<use id="use4569" xlink:href="#path4565" transform="translate(119.37 -578.31)" height="100%" width="100%" y="0" x="0"/>
		<use id="use4575" xlink:href="#g-element-0" transform="translate(116.22 -460.98)" height="100%" width="100%" y="0" x="0"/>
		<use id="use4577" xlink:href="#g-element-0" transform="translate(297.09 -579.28)" height="100%" width="100%" y="0" x="0"/>
		<use id="use4577-6" xlink:href="#g-element-0" transform="translate(297.09 -520.85)" height="100%" width="100%" y="0" x="0"/>
		<use id="use4600" xlink:href="#text3448" transform="translate(-205.01 -628.4)" height="100%" width="100%" y="0" x="0"/>
		<use id="use4602" xlink:href="#path3454" transform="translate(185.53 -634.72)" height="100%" width="100%" y="0" x="0"/>
		<ellipse id="ellipse4573" rx="73.948" ry="40.093" stroke="#333" pointer-events="none" cy="55.5" cx="129.22" stroke-width="2" class="hl" fill="none"/>
	</g>
	<g id="g-matrix" class="layer">
		<use id="use13670" xlink:href="#text3374" transform="translate(-177.87 -573.4)" height="100%" width="100%" y="0" x="0"/>
		<use id="use13672" xlink:href="#text3647" transform="translate(-144.09 -595.19)" height="100%" width="100%" y="0" x="0"/>
		<use id="use13674" xlink:href="#text3380" transform="translate(-165.44 -534.27)" height="100%" width="100%" y="0" x="0"/>
		<use id="use13694" xlink:href="#text13690" transform="translate(-123.27 -700.02)" height="100%" width="100%" y="0" x="0"/>
		<use id="use13694-7" xlink:href="#text13690" transform="translate(-152.62 -671.12)" height="100%" width="100%" y="0" x="0"/>
		<use id="use13717" xlink:href="#text13686" transform="translate(-142.74 -699.58)" height="100%" width="100%" y="0" x="0"/>
		<use id="use13717-1" xlink:href="#text13686" transform="translate(-210.34 -631.09)" height="100%" width="100%" y="0" x="0"/>
		<g stroke="#333">
			<path id="path13742" d="m319 278.88h-240" stroke-width="2" fill="none"/>
			<path id="path13744" d="m198 399.88v-240" stroke-width="2" fill="none"/>
			<rect id="rect13762" fill-opacity="0" height="238" width="238" y="160.88" x="80.002" stroke-width="2"/>
			<path id="path13764" d="m199 218.77h-120" stroke-width="2" fill="none"/>
			<path id="path13766" d="m138.95 279.67v-119.79" stroke-width="2" fill="none"/>
		</g>
		<use id="use13774" xlink:href="#text3442" transform="translate(-197.25 -426.49)" height="100%" width="100%" y="0" x="0"/>
		<use id="use13776" xlink:href="#text3448" transform="matrix(.83623 0 0 .83623 -106.92 -395.35)" height="100%" width="100%" y="0" x="0"/>
		<use id="use13778" xlink:href="#text3647-9" transform="translate(-204 -485.25)" height="100%" width="100%" y="0" x="0"/>
		<use id="use13780" xlink:href="#text3647" transform="matrix(1.6839 0 0 1.6839 -356.37 -873.57)" height="100%" width="100%" y="0" x="0"/>
		<use id="use13782" xlink:href="#text3380" transform="matrix(1.7374 0 0 1.7374 -410.95 -751.83)" height="100%" width="100%" y="0" x="0"/>
		<use id="use13784" xlink:href="#text13686" transform="translate(-104.91 -574)" height="100%" width="100%" y="0" x="0"/>
		<use id="use13786" xlink:href="#text13682" transform="translate(-175.09 -574.17)" height="100%" width="100%" y="0" x="0"/>
		<use id="use13788" xlink:href="#text13676" transform="translate(-213.58 -574.17)" height="100%" width="100%" y="0" x="0"/>
		<use id="use13790" xlink:href="#text13686" transform="translate(-290.83 -385.38)" height="100%" width="100%" y="0" x="0"/>
		<use id="use13792" xlink:href="#text13682" transform="translate(-278.41 -476.18)" height="100%" width="100%" y="0" x="0"/>
		<use id="use13794" xlink:href="#text13676" transform="translate(-255.17 -532.2)" height="100%" width="100%" y="0" x="0"/>
		<use id="use13859" xlink:href="#g13843" transform="translate(152.11 -708.23)" height="100%" width="100%" y="0" x="0"/>
	</g>
	<g id="g-r-process" class="layer">
		<g>
			<path id="path13877" d="m361.72 215.7h-293.31" marker-start="url(#Arrow1Mstart-4)" class="hl" stroke="#333" stroke-width="2" fill="none"/>
			<path id="path13879" d="m68.41 23.379v192.32" marker-start="url(#Arrow1Mstart-4)" stroke="#333" stroke-width="2" class="hl" fill="none"/>
			<rect id="rect13881" transform="scale(-1)" height="22.715" width="275.15" y="-215.69" x="-343.56" stroke-width="0" fill="url(#pattern3583)"/>
		</g>
		<use id="use13925" xlink:href="#text3653" transform="translate(-260.34 -603.68)" height="100%" width="100%" y="0" x="0"/>
		<use id="use13927" xlink:href="#text13887" transform="translate(64.147 -514.2)" height="100%" width="100%" y="0" x="0"/>
		<use id="use13929" xlink:href="#text13895" transform="translate(-215.88 -514.76)" height="100%" width="100%" y="0" x="0"/>
		<use id="use13931" xlink:href="#text13901" transform="translate(-203.18 -514.76)" height="100%" width="100%" y="0" x="0"/>
		<use id="use13933" xlink:href="#text13907" transform="translate(-69.762 -514.84)" height="100%" width="100%" y="0" x="0"/>
		<use id="use13935" xlink:href="#text13913" transform="translate(-55.06 -514.76)" height="100%" width="100%" y="0" x="0"/>
		<use id="use13937" xlink:href="#text13919" transform="translate(-284.58 -575.5)" height="100%" width="100%" y="0" x="0"/>
		<use id="use13939" xlink:href="#text3374" transform="translate(-308.82 -435.25)" height="100%" width="100%" y="0" x="0"/>
		<use id="use13941" xlink:href="#text13891" transform="translate(-320.54 -491.81)" height="100%" width="100%" y="0" x="0"/>
		<use id="use13943" xlink:href="#text3380" transform="translate(-334.72 -552.01)" height="100%" width="100%" y="0" x="0"/>
		<rect id="rect13945" transform="scale(-1)" height="22.715" width="275.15" y="-76.907" x="-343.56" stroke-width="0" fill="url(#pattern13947)"/>
		<g stroke="#333" fill="none">
			<g>
				<path id="path13949" d="m68.614 214.77s13.166 4.4398 24.805-10.453c31.107-39.802 21.272-118.96 42.545-139.09 13.503-12.776 19.783-10.95 29.262-11.105 27.996-0.45923 84.153 0.35087 84.153 0.35087s16.692-0.15368 28.506 15.821c11.814 15.974 19.563 112.03 39.063 131.53 13.213 13.213 24.879 12.847 24.879 12.847" stroke-width="2"/>
				<g>
					<path id="path13951" d="m68.454 53.981h275.11"/>
					<path id="path13953" d="m68.454 76.407h275.11"/>
					<path id="path13955" d="m68.454 192.85h275.11"/>
				</g>
			</g>
			<g>
				<path id="path13957" d="m129.64 75.907v139.79" stroke-dasharray="4, 4"/>
				<path id="path13959" d="m280.73 75.907v139.79" stroke-dasharray="4, 4"/>
				<path id="path13961" d="m310.98 193.35v23.033" stroke-dasharray="4.00000004, 4.00000004"/>
				<path id="path13963" d="m100.62 193.35v23.033" stroke-dasharray="4.00000004, 4.00000004"/>
			</g>
		</g>
	</g>
</svg>
