<svg xmlns="http://www.w3.org/2000/svg" preserveAspectRatio="xMidYMin slice" xmlns:xlink="http://www.w3.org/1999/xlink" viewBox="0 0 400 1200">
  <title>
    Инвариантное моделирование
  </title>
  <style>
    .illustration { display: none; } .illustration:target { display: inline; } .hl:hover { stroke: red; }
  </style>
  <defs>
    <marker id="Arrow1Mstart" orient="auto" overflow="visible">
      <path fill="#333" fill-rule="evenodd" stroke="#333" stroke-width=".4pt" d="M4 0l2-2-7 2 7 2-2-2z"/>
    </marker>
    <pattern id="pattern5805" xlink:href="#g-hatch-3" patternTransform="rotate(45 -1309.26 563.033)"/>
    <pattern id="g-hatch-3" width="4" height="4" patternUnits="userSpaceOnUse" patternTransform="rotate(45)">
      <path stroke="#333" d="M0 0v4"/>
    </pattern>
    <pattern id="pattern3370" xlink:href="#g-hatch-3" patternTransform="rotate(45 1931.362 -799.996)"/>
  </defs>
  <g id="g-sprites" transform="translate(0 -600)" class="illustration">
    <text x="14.651" y="1390.723" fill="url(#pattern5805)" stroke="#333" font-family="Georgia" font-size="80">
      <tspan font-weight="bold" font-size="45">Штриховка</tspan>
    </text>
    <path fill-opacity="0" d="M500 1419h300v-80H500z"/>
    <path fill-opacity="0" d="M560 1319h390v100H560z"/>
    <text id="text3374" x="335.302" y="631.852" fill="#333" font-size="80" font-family="Georgia" word-spacing="0" letter-spacing="0">
      <tspan x="335.302" y="631.852" font-size="17.5" font-family="'Times New Roman'">A<tspan font-size="12.5" baseline-shift="sub">1</tspan></tspan>
    </text>
    <text id="text3380" x="375.74" y="631.852" fill="#333" font-size="80" font-family="Georgia" word-spacing="0" letter-spacing="0">
      <tspan x="375.74" y="631.852" font-size="17.5" font-family="'Times New Roman'">A<tspan font-size="12.5" baseline-shift="sub">2</tspan></tspan>
    </text>
    <circle id="g-element-1" cx="40" cy="620.18" r="9.091" fill-opacity="0" stroke="#333" stroke-width="1.818" class="hl"/>
    <circle id="g-element-0" cx="13" cy="-613" r="2.36" fill="#333" stroke="#333" stroke-width="1.281" transform="scale(1 -1)" class="hl"/>
    <circle id="g-element-2" cx="80" cy="630.18" r="19.048" fill-opacity="0" stroke="#333" stroke-width="1.905" class="hl"/>
    <circle id="g-element-3" cx="140.1" cy="640.28" r="28.699" fill-opacity="0" stroke="#333" stroke-width="2" class="hl"/>
    <circle cx="220" cy="650.18" r="39.024" fill="none" stroke="#333" stroke-width="1.951" class="hl" pointer-events="none"/>
    <circle cx="60.805" cy="1174.2" r="5" fill="#333" stroke="#333" stroke-width="2" pointer-events="none"/>
    <path fill="none" stroke="#333" stroke-width="2" stroke-miterlimit="10" d="M156.81 1218.1h-5q-5 0-5 10v40q0 10-5 10h2.5q2.5 0 2.5 10v40q0 10 5 10h5" pointer-events="none"/>
    <path fill="url(#pattern3370)" d="M-380-1614h320v94.717h-320z" transform="scale(-1)"/>
    <text id="text3641" x="299.838" y="654.043" fill="#333" font-size="80" font-family="Georgia" word-spacing="0" letter-spacing="0">
      <tspan x="299.838" y="654.043" font-size="17.5" font-family="'Times New Roman'">Y<tspan font-size="12.5" baseline-shift="sub">mn</tspan></tspan>
    </text>
    <text id="text3647" x="349.597" y="654.176" fill="#333" font-size="80" font-family="Georgia" word-spacing="0" letter-spacing="0">
      <tspan x="349.597" y="654.176" font-size="17.5" font-family="'Times New Roman'">Y<tspan font-size="12.5" baseline-shift="sub">1.2</tspan></tspan>
    </text>
    <text id="text3653" x="300.302" y="631.852" font-size="80" font-family="Georgia" word-spacing="0" letter-spacing="0">
      <tspan x="300.302" y="631.852" fill="#333" font-size="17.5" font-family="'Times New Roman'">A</tspan>
    </text>
    <path id="g-relation-0" fill="none" stroke="#333" stroke-width="2" d="M97.02 665H9.852" marker-start="url(#Arrow1Mstart)" class="hl"/>
  </g>
  <g id="g-graph" transform="translate(0 -600)" class="illustration">
    <use width="100%" height="100%" xlink:href="#g-element-2" transform="translate(40 16.035)"/>
    <use width="100%" height="100%" xlink:href="#g-element-0" transform="translate(5 31.22)"/>
    <use width="100%" height="100%" xlink:href="#text3653" transform="translate(-185.78 206.41)"/>
    <use width="100%" height="100%" xlink:href="#text3641" transform="translate(-230.39 56.22)"/>
    <use width="100%" height="100%" xlink:href="#text3374" transform="translate(-304.06 -1.456)"/>
    <use width="100%" height="100%" xlink:href="#text3380" transform="translate(-230 -1.456)"/>
    <use width="100%" height="100%" xlink:href="#g-relation-0" transform="translate(28.824 56.22)"/>
    <g id="g4955" transform="translate(13.824 -163.78)">
      <use width="100%" height="100%" xlink:href="#g-element-0" transform="translate(8.852 333.86)"/>
      <use width="100%" height="100%" xlink:href="#g-element-0" transform="translate(105.84 333.86)"/>
      <use width="100%" height="100%" xlink:href="#g-relation-0" transform="translate(15 281.86)"/>
      <use width="100%" height="100%" xlink:href="#text3374" transform="translate(-322.2 303.88)"/>
      <use width="100%" height="100%" xlink:href="#text3380" transform="translate(-262.68 303.88)"/>
      <use width="100%" height="100%" xlink:href="#text3647" transform="translate(-296.54 313.24)"/>
    </g>
    <use width="100%" height="100%" xlink:href="#g4955" transform="translate(0 104.48)"/>
    <ellipse cx="83.118" cy="885.35" fill="none" stroke="#333" stroke-width="2" rx="73.948" ry="40.093" class="hl" pointer-events="none"/>
  </g>
</svg>
