<svg xmlns="http://www.w3.org/2000/svg" viewBox="0 0 128 128" width="32" height="32" id="IMstar"><defs><linearGradient id="linearGradient4760" x1="151.91" x2="151.91" y1="84.977" y2="292.88" gradientUnits="userSpaceOnUse" gradientTransform="translate(-.288 174.29) scale(.42384)"><stop stop-color="#577bdf" stop-opacity=".941" offset="0"/><stop stop-color="#1049ec" stop-opacity=".941" offset="1"/></linearGradient></defs><path fill="url(#linearGradient4760)" d="M63.5 174.5c-35.284 0-64 28.72-64 64s28.716 64 64 64c35.283 0 64-28.72 64-64s-28.717-64-64-64zm1.026 10.548c22.79.427 42.032 15.02 49.315 35.37l-37.45.26-11.86-35.63zm-2.43.005l-11.356 35.81-37.833.268c7.046-20.603 26.297-35.49 49.19-36.072zm52.532 37.73c1.52 4.968 2.338 10.244 2.338 15.718 0 17.19-8.055 32.448-20.605 42.22l-11.88-35.71 30.15-22.23zm-102.4.503l30.765 22.023-11.446 36.09c-13.067-9.73-21.507-25.308-21.507-42.9 0-5.29.765-10.393 2.187-15.214zm51.62 36.95L94.45 282.14c-8.727 6.19-19.402 9.826-30.948 9.826-11.19 0-21.56-3.416-30.13-9.26l30.473-22.47z" style="text-decoration-color:#000000;isolation:auto;mix-blend-mode:normal;block-progression:tb;text-decoration-line:none;text-decoration-style:solid;text-indent:0;text-transform:none" color="#000" solid-color="#000000" white-space="normal" transform="translate(.5 -174.5)"/></svg>